<?xml version="1.0" encoding="UTF-8" standalone="no"?>
<svg
   xmlns:dc="http://purl.org/dc/elements/1.1/"
   xmlns:cc="http://creativecommons.org/ns#"
   xmlns:rdf="http://www.w3.org/1999/02/22-rdf-syntax-ns#"
   xmlns:svg="http://www.w3.org/2000/svg"
   xmlns="http://www.w3.org/2000/svg"
   height="432"
   width="432"
   id="svg4578"
   xml:space="preserve"
   viewBox="0 0 432 432"
   y="0px"
   x="0px"
   version="1.1"><metadata
     id="metadata4619"><rdf:RDF><cc:Work
         rdf:about=""><dc:format>image/svg+xml</dc:format><dc:type
           rdf:resource="http://purl.org/dc/dcmitype/StillImage" /><dc:title></dc:title></cc:Work></rdf:RDF></metadata><defs
     id="defs4617" /><style
     id="style4580"
     type="text/css">
	.st0{fill:#3B2F45;}
	.st1{fill:#E9F6F5;}
	.st2{fill:#FFD773;}
</style><g
     transform="translate(0,-68)"
     id="Background" /><g
     transform="translate(-33.999399,-68.941876)"
     id="Icons"><g
       id="g4584"><g
         id="XMLID_1_"><g
           id="g4587"><path
             style="fill:#3b2f45"
             id="path4589"
             d="m 465.76001,287.67999 c 0.42999,0.46002 0.60999,1.09 0.5,1.71002 -0.11002,0.62 -0.5,1.15 -1.06,1.43 l -79.87002,40.58999 -4.40998,53.85999 c -0.06,0.72 -0.5,1.35001 -1.15002,1.65002 l -137.73,64.88999 c -0.08,0.04 -0.15999,0.06 -0.23999,0.08 -0.05,0.02 -0.1,0.04 -0.15001,0.05 C 241.5,451.98 241.34,452 241.19,452 c -0.19,0 -0.38,-0.03 -0.56,-0.08 -0.04,-0.01 -0.09,-0.04 -0.13,-0.06 -0.13,-0.05 -0.25999,-0.1 -0.38,-0.16999 -0.01,-0.01 -0.01,-0.01 -0.02,-0.01 l -115.97,-74.89 c -0.53,-0.34 -0.87,-0.92001 -0.91,-1.55002 l -2.49,-39.25998 -86.079999,-53.25 c -0.52,-0.33002 -0.870002,-0.87002 -0.93,-1.49002 -0.07,-0.60999 0.149998,-1.22 0.599999,-1.64999 l 74.57,-71.98999 2.63,0.25 129.67001,61.35998 L 394.21,213.63 l 2.66,-0.08 68.89001,74.12999 z m -4.74002,0.78 -67.37,-72.49998 L 244.42,270.16 l 70.3,92.63999 146.29999,-74.34 z m -84,95.34 4.12002,-50.25998 -66.1,33.58999 c -0.29001,0.13999 -0.60001,0.21 -0.9,0.21 -0.61001,0 -1.21002,-0.26999 -1.6,-0.79001 L 243.19,275.16 l 0,171.69001 133.82999,-63.05002 z m -137.82999,62.53 0,-171.82999 -75.86,85.87 c -0.40001,0.45001 -0.95,0.67999 -1.5,0.67999 -0.36999,0 -0.72999,-0.1 -1.06,-0.29999 l -35.87,-22.19 2.25,35.42001 112.04,72.34998 z m -77.75,-89.87 L 237.92999,269.88 111.91,210.25 38.949997,280.67999 123.67,333.09 c 0,0.01 0.01,0.01 0.01,0.01 l 37.76,23.35998 z"
             class="st0" /><polygon
             style="fill:#e9f6f5"
             id="polygon4591"
             points="393.64999,215.96001 461.01999,288.45999 314.72,362.79999 244.42,270.16 "
             class="st1" /><path
             style="fill:#3b2f45"
             id="path4593"
             d="m 449.31,148.49001 c 0.23001,0.65998 0.1,1.39999 -0.34,1.93998 l -52.1,63.12001 -2.66001,0.08 -136.56998,-41.38999 0.07,-2.91001 L 306.81,119.7 c 0.47,-0.48 1.14999,-0.69 1.81,-0.55 l 139.20001,28.05 c 0.69,0.14 1.25,0.63 1.48999,1.29001 z m -55.79001,62.83999 50.24002,-60.86999 -134.87,-27.18001 -47.49002,48.00999 132.12,40.04001 z"
             class="st0" /><polygon
             style="fill:#e9f6f5"
             id="polygon4595"
             points="443.76001,150.46001 393.51999,211.33 261.39999,171.28999 308.89001,123.28 "
             class="st1" /><path
             style="fill:#3b2f45"
             id="path4597"
             d="M 394.20999,213.63 241.19,269.20999 111.51999,207.85001 257.64001,172.24001 394.20999,213.63 Z M 259.64001,260.38 387.88,213.8 259.64001,174.94 l 0,85.44 z m -4.00001,1.44999 0,-87.04 -138.17,33.66001 123.81999,58.59999 14.35001,-5.22 z"
             class="st0" /><polygon
             style="fill:#ffd773"
             id="polygon4599"
             points="259.64001,174.94 387.88,213.8 259.64001,260.38 "
             class="st2" /><path
             style="fill:#e9f6f5"
             id="path4601"
             d="m 381.14001,333.54001 -4.12002,50.25998 -133.82999,63.05002 0,-171.69001 69.35001,91.38999 c 0.38998,0.52002 0.98999,0.79001 1.6,0.79001 0.29999,0 0.60999,-0.07 0.9,-0.21 l 66.1,-33.58999 z"
             class="st1" /><path
             style="fill:#3b2f45"
             id="path4603"
             d="m 211.88,118.55 45.82999,50.78 -0.07,2.91001 -146.12002,35.61 -2.63,-0.25 L 64.389992,145.23 c -0.399998,-0.56 -0.489998,-1.29 -0.220001,-1.93 0.260002,-0.64 0.830001,-1.08999 1.510002,-1.21 L 210.06,117.91 c 0.67,-0.11 1.36,0.13 1.82,0.64 z M 253.91,171.09 209.64,122.04 69.5,145.50999 112.36,205.58 253.91,171.09 Z"
             class="st0" /><polygon
             style="fill:#ffd773"
             id="polygon4605"
             points="255.64,174.78999 255.64,261.82999 241.28999,267.04999 117.47,208.45 "
             class="st2" /><polygon
             style="fill:#e9f6f5"
             id="polygon4607"
             points="209.64,122.04 253.91,171.09 112.36,205.58 69.5,145.50999 "
             class="st1" /><path
             style="fill:#e9f6f5"
             id="path4609"
             d="m 239.19,274.5 0,171.82999 -112.04,-72.34998 -2.25,-35.42001 35.87,22.19 c 0.33001,0.20001 0.69001,0.29999 1.06,0.29999 0.55,0 1.09999,-0.22998 1.5,-0.67999 l 75.86,-85.87 z"
             class="st1" /><path
             style="fill:#e9f6f5"
             id="path4611"
             d="M 237.92999,269.88 161.44,356.45999 123.68,333.10001 c 0,0 -0.01,0 -0.01,-0.01 L 38.949997,280.67999 111.91,210.25 237.92999,269.88 Z"
             class="st1" /></g><g
           id="g4613" /></g></g></g></svg>